<?xml version="1.0" standalone="no"?>
<!DOCTYPE svg PUBLIC "-//W3C//DTD SVG 20010904//EN"
 "http://www.w3.org/TR/2001/REC-SVG-20010904/DTD/svg10.dtd">
<svg version="1.0" xmlns="http://www.w3.org/2000/svg"
 width="301.000000pt" height="301.000000pt" viewBox="0 0 301.000000 301.000000"
 preserveAspectRatio="xMidYMid meet">
<metadata>
Created by potrace 1.11, written by Peter Selinger 2001-2013
</metadata>
<g transform="translate(0.000000,301.000000) scale(0.100000,-0.100000)"
fill="#000000" stroke="none">
<path d="M1466 2994 c-25 -25 -27 -49 -24 -258 3 -194 3 -198 27 -217 30 -25
63 -24 87 2 17 19 19 41 22 217 2 108 1 206 -2 218 -9 33 -34 54 -66 54 -16 0
-36 -7 -44 -16z"/>
<path d="M652 2820 c-12 -5 -27 -22 -33 -36 -9 -24 1 -50 82 -221 51 -107 100
-198 110 -204 43 -22 99 7 99 52 0 23 -164 376 -183 395 -18 18 -50 24 -75 14z"/>
<path d="M2289 2818 c-22 -7 -42 -42 -118 -198 -50 -104 -91 -197 -91 -208 0
-23 40 -62 64 -62 38 0 56 26 145 214 87 183 92 196 79 222 -16 33 -44 44 -79
32z"/>
<path d="M1312 2316 c-528 -101 -908 -511 -964 -1041 -35 -342 90 -688 341
-935 229 -227 502 -340 821 -340 239 0 446 62 650 195 100 66 253 220 323 327
232 350 257 801 67 1173 -153 297 -427 515 -757 602 -122 31 -363 41 -481 19z
m293 -98 c3 -3 -10 -27 -29 -53 -20 -26 -48 -66 -61 -90 l-26 -43 -97 33 c-85
29 -129 38 -292 62 l-35 5 35 15 c64 27 204 64 275 73 78 9 220 9 230 -2z
m190 -57 c8 -16 16 -44 17 -61 l3 -32 -90 -23 c-49 -13 -99 -27 -109 -31 -17
-7 -17 -4 5 36 13 24 44 65 67 92 52 57 84 63 107 19z m208 -54 l42 -22 -80
-5 c-66 -4 -81 -2 -83 10 -2 8 -7 29 -12 47 l-8 32 49 -20 c28 -10 69 -29 92
-42z m-818 -93 c50 -6 194 -48 229 -66 16 -9 9 -15 -53 -49 -85 -46 -173 -105
-256 -169 -49 -39 -64 -46 -82 -39 -54 20 -123 -42 -109 -97 5 -19 -7 -39 -65
-106 -39 -46 -92 -111 -116 -146 -25 -35 -47 -62 -48 -60 -9 9 -37 141 -45
210 -11 95 2 215 31 294 28 74 104 156 183 194 90 45 179 54 331 34z m921 -40
c146 -38 263 -140 295 -258 13 -48 14 -215 1 -228 -5 -5 -38 -6 -74 -2 -64 6
-65 7 -84 47 -26 56 -64 81 -124 83 -47 2 -54 6 -135 82 l-86 80 -3 112 -3
112 79 -7 c44 -3 104 -13 134 -21z m-276 -63 l0 -78 -94 61 c-51 33 -92 62
-91 64 5 5 130 30 158 31 l27 1 0 -79z m-120 -127 c132 -94 121 -75 110 -184
-5 -52 -10 -103 -10 -112 0 -12 -12 -19 -46 -24 -38 -5 -49 -3 -68 15 -32 30
-70 27 -98 -8 -16 -20 -36 -30 -64 -35 -40 -6 -42 -4 -55 26 -7 18 -25 46 -40
63 l-27 31 48 129 c26 72 55 147 64 168 l17 38 47 -27 c26 -15 81 -51 122 -80z
m-352 -46 c-27 -73 -51 -138 -53 -145 -2 -7 -21 -17 -43 -22 -73 -20 -132
-100 -132 -182 0 -25 -5 -27 -177 -72 -98 -25 -186 -49 -197 -53 -22 -9 6 38
95 156 78 104 92 115 141 111 58 -4 90 28 87 86 -3 41 -2 43 66 94 63 48 242
159 256 159 3 0 -16 -60 -43 -132z m583 -144 c45 -44 46 -47 36 -80 -9 -31
-14 -34 -48 -34 -20 0 -43 -2 -51 -5 -11 -4 -11 10 -4 80 6 47 12 85 15 85 3
0 26 -21 52 -46z m-1361 -200 c11 -40 28 -95 38 -121 l19 -49 -95 -47 -95 -46
6 112 c7 119 22 189 65 302 l26 70 8 -74 c4 -41 17 -107 28 -147z m1949 74 c1
-5 -3 -8 -9 -8 -5 0 -10 12 -9 28 0 24 1 25 9 7 5 -11 9 -23 9 -27z m-735 -98
c-5 -41 -11 -53 -29 -60 -54 -20 -70 -88 -34 -134 21 -26 21 -28 4 -95 l-17
-69 -49 -6 c-46 -6 -53 -4 -84 23 -59 52 -130 52 -185 1 -16 -15 -30 -35 -30
-44 0 -8 -9 -20 -19 -26 -23 -12 -91 -14 -91 -2 0 4 12 64 27 134 l27 126 38
6 c54 9 116 67 130 122 11 41 15 44 54 50 31 4 49 2 66 -10 33 -23 75 -20 101
8 18 20 77 38 95 30 2 -1 0 -25 -4 -54z m204 24 c26 -39 74 -64 125 -64 29 0
39 -6 59 -38 31 -46 68 -118 68 -131 0 -15 -316 -106 -437 -126 l-41 -6 15 58
c12 49 19 60 46 73 46 22 59 78 28 121 -20 26 -22 38 -16 82 4 29 9 55 12 60
2 4 30 7 61 7 54 0 58 -2 80 -36z m373 17 c15 -5 14 -13 -6 -74 -23 -67 -32
-85 -38 -76 -34 46 -85 143 -81 153 4 12 18 13 57 9 29 -3 59 -9 68 -12z m159
-46 c52 -27 39 -55 -47 -108 l-41 -26 25 74 c14 41 27 75 29 75 3 0 18 -7 34
-15z m-1353 -84 l33 -39 -31 -149 c-17 -81 -34 -151 -38 -154 -3 -4 -67 -10
-141 -13 l-135 -7 -37 58 c-39 62 -111 204 -106 207 23 18 379 134 413 135 6
0 25 -17 42 -38z m1391 -193 c-5 -104 -32 -230 -67 -309 l-18 -44 -8 60 c-8
72 -38 204 -59 262 l-15 42 82 45 c45 24 84 45 86 45 2 1 1 -45 -1 -101z
m-1994 -40 c-18 -46 -38 -84 -43 -86 -18 -6 -71 28 -71 46 0 10 12 30 28 44
29 27 103 78 113 78 3 0 -9 -37 -27 -82z m140 22 c15 -27 42 -73 62 -101 l35
-52 -47 7 c-26 3 -63 6 -83 6 -66 0 -69 8 -38 104 16 48 32 86 36 86 4 0 20
-22 35 -50z m1475 -72 c-13 -18 -51 -68 -86 -110 -59 -71 -66 -76 -89 -68 -64
25 -141 -1 -181 -60 -17 -25 -23 -47 -23 -89 l0 -56 -77 -47 c-43 -25 -93 -53
-110 -62 l-33 -16 22 52 c12 29 46 125 76 213 l54 160 126 28 c70 15 170 41
222 56 124 38 126 38 99 -1z m161 -90 c39 -166 26 -332 -34 -427 -13 -20 -44
-55 -70 -79 -79 -73 -171 -102 -322 -102 -111 0 -171 9 -282 42 l-73 21 88 47
c48 25 117 65 152 88 58 39 67 42 94 32 115 -40 229 49 213 166 -6 44 -4 46
62 123 37 43 83 102 102 130 19 28 38 51 42 51 3 0 16 -42 28 -92z m-670 -17
c0 -14 -76 -215 -126 -331 -44 -104 -49 -111 -84 -121 -42 -13 -74 0 -192 79
-68 45 -68 45 -67 91 1 60 23 218 32 227 4 4 37 11 74 16 59 7 69 5 88 -11 30
-29 74 -43 109 -35 39 8 83 39 91 64 3 10 14 21 23 23 30 8 52 7 52 -2z
m-1164 -48 c-3 -8 -6 -20 -7 -26 -1 -14 -17 22 -18 40 -1 7 6 10 15 6 8 -3 13
-12 10 -20z m296 -19 c70 -5 80 -9 96 -32 13 -19 17 -39 14 -68 -3 -36 0 -44
29 -68 26 -23 38 -26 68 -21 30 5 40 2 57 -17 20 -21 21 -32 16 -147 l-5 -124
-96 6 c-126 6 -190 29 -255 88 -90 82 -136 192 -136 327 l0 73 68 -5 c37 -3
102 -8 144 -12z m315 -16 c-4 -13 -9 -53 -13 -91 -6 -56 -9 -65 -21 -55 -9 7
-12 21 -8 39 7 31 -16 83 -40 93 -9 3 -34 6 -55 6 -24 0 -40 5 -44 15 -4 13 9
15 90 15 95 0 96 0 91 -22z m164 -358 c77 -53 78 -52 -28 -74 l-63 -14 0 75
c0 49 4 72 11 68 5 -4 41 -28 80 -55z m339 -176 c98 -37 216 -64 292 -65 l53
-1 -55 -25 c-129 -59 -399 -100 -514 -79 l-37 7 34 42 c19 23 51 70 72 105 29
49 41 62 54 56 9 -4 54 -22 101 -40z m-230 -13 c-40 -65 -107 -133 -127 -129
-23 4 -53 48 -59 89 l-6 35 64 12 c36 7 82 18 104 26 56 21 57 21 24 -33z
m-304 -26 c15 -5 24 -55 10 -55 -6 1 -40 16 -76 35 l-65 34 60 -6 c33 -2 65
-6 71 -8z"/>
<path d="M40 2273 c-50 -18 -54 -82 -7 -116 54 -41 321 -205 343 -211 30 -9
74 28 74 63 0 37 -19 53 -204 166 -162 99 -180 108 -206 98z"/>
<path d="M2770 2179 c-91 -56 -175 -111 -188 -122 -31 -29 -26 -73 10 -100 23
-17 32 -19 53 -9 41 19 349 213 357 226 12 18 9 73 -5 84 -38 32 -59 24 -227
-79z"/>
</g>
</svg>
